HIERARCHY
ROOT Hips
{
    OFFSET 0.000000 0.000000 0.000000
    CHANNELS 6 Xposition Yposition Zposition Zrotation Xrotation Yrotation
    JOINT Spine
    {
        OFFSET -0.000000 14.517291 0.000000
        CHANNELS 3 Zrotation Xrotation Yrotation
        JOINT Spine1
        {
            OFFSET -0.000000 37.558300 0.000000
            CHANNELS 3 Zrotation Xrotation Yrotation
            JOINT Neck
            {
                OFFSET -0.000000 37.404057 3.400369
                CHANNELS 3 Zrotation Xrotation Yrotation
                JOINT Head
                {
                    OFFSET -0.000000 24.785618 -3.540803
                    CHANNELS 3 Zrotation Xrotation Yrotation
                    End Site
                    {
                        OFFSET -0.000000 35.408028 0.000000
                    }
                }
            }
            JOINT LeftShoulder
            {
                OFFSET 6.992933 33.973492 -0.192664
                CHANNELS 3 Zrotation Xrotation Yrotation
                JOINT LeftArm
                {
                    OFFSET 21.527611 0.000000 0.000000
                    CHANNELS 3 Zrotation Xrotation Yrotation
                    JOINT LeftForeArm
                    {
                        OFFSET 56.353916 0.000000 0.000000
                        CHANNELS 3 Zrotation Xrotation Yrotation
                        JOINT LeftHand
                        {
                            OFFSET 47.774071 0.000000 0.000000
                            CHANNELS 3 Zrotation Xrotation Yrotation
                            End Site
                            {
                                OFFSET 26.556021 0.000000 0.000000
                            }
                        }
                    }
                }
            }
            JOINT RightShoulder
            {
                OFFSET -7.065357 33.973492 -0.192664
                CHANNELS 3 Zrotation Xrotation Yrotation
                JOINT RightArm
                {
                    OFFSET -21.527611 0.000000 0.000000
                    CHANNELS 3 Zrotation Xrotation Yrotation
                    JOINT RightForeArm
                    {
                        OFFSET -56.353916 0.000000 0.000000
                        CHANNELS 3 Zrotation Xrotation Yrotation
                        JOINT RightHand
                        {
                            OFFSET -47.774071 0.000000 0.000000
                            CHANNELS 3 Zrotation Xrotation Yrotation
                            End Site
                            {
                                OFFSET -26.556021 0.000000 0.000000
                            }
                        }
                    }
                }
            }
        }
    }
    JOINT LeftUpLeg
    {
        OFFSET 17.704014 0.000000 0.000000
        CHANNELS 3 Zrotation Xrotation Yrotation
        JOINT LeftLeg
        {
            OFFSET -0.000000 -81.181816 0.000000
            CHANNELS 3 Zrotation Xrotation Yrotation
            JOINT LeftFoot
            {
                OFFSET -0.000000 -62.821102 0.000000
                CHANNELS 3 Zrotation Xrotation Yrotation
                JOINT LeftToeBase
                {
                    OFFSET -0.000000 -11.507608 26.556021
                    CHANNELS 3 Zrotation Xrotation Yrotation
                    End Site
                    {
                        OFFSET -0.000000 0.000000 7.081605
                    }
                }
            }
        }
    }
    JOINT RightUpLeg
    {
        OFFSET -17.704014 0.000000 0.000000
        CHANNELS 3 Zrotation Xrotation Yrotation
        JOINT RightLeg
        {
            OFFSET -0.000000 -81.181816 0.000000
            CHANNELS 3 Zrotation Xrotation Yrotation
            JOINT RightFoot
            {
                OFFSET -0.000000 -62.821102 0.000000
                CHANNELS 3 Zrotation Xrotation Yrotation
                JOINT RightToeBase
                {
                    OFFSET -0.000000 -11.507608 26.556021
                    CHANNELS 3 Zrotation Xrotation Yrotation
                    End Site
                    {
                        OFFSET -0.000000 0.000000 7.081605
                    }
                }
            }
        }
    }
}
MOTION
Frames:    10
Frame Time:    0.008333
25.397366    145.922318    48.489571    4.743786    3.003285    -60.963665    -0.265730    -0.946397    -0.156154    0.967408    0.305876    -0.055573    20.481903    7.029705    20.446642    -16.217484    3.028850    17.722075    13.144385    0.022256    -16.198954    -1.731710    -9.867470    -20.989853    -4.194542    -0.901165    -87.140358    -3.367797    -4.072015    -27.334890    -4.535058    6.483523    -6.405816    18.839407    11.271965    38.582100    49.970341    10.241335    50.813576    13.820664    -11.549893    31.091593    37.298653    -23.305546    30.849894    -30.802588    42.435772    5.570950    0.274893    -13.420991    43.802204    0.000000    0.000000    0.000000    -30.498934    -12.730629    -17.944033    4.150698    33.088276    -6.624801    19.786055    -11.033302    7.168639    0.000000    0.000000    0.000000    
25.396145    145.927246    48.490028    4.743187    3.011670    -60.969486    -0.242116    -0.946176    -0.168605    0.949553    0.288023    -0.059421    20.455782    7.004084    20.431242    -16.155794    3.087259    17.718430    13.135978    0.027427    -16.203943    -1.735826    -9.847189    -21.002913    -4.187447    -0.899096    -87.138924    -3.360903    -4.065894    -27.300926    -4.544359    6.493682    -6.417564    18.834578    11.301686    38.589211    50.002686    10.288950    50.834904    13.814455    -11.541595    31.048710    37.304306    -23.302319    30.848446    -30.797087    42.431641    5.576523    0.260903    -13.436396    43.791031    0.000000    0.000000    0.000000    -30.485508    -12.726282    -17.954187    4.137343    33.067947    -6.600935    19.762878    -11.032240    7.174051    0.000000    0.000000    0.000000    
25.392130    145.930466    48.497505    4.728408    2.998381    -60.977840    -0.231386    -0.935105    -0.190293    0.928450    0.287944    -0.066421    20.456995    7.017868    20.423023    -16.149574    3.102972    17.715189    13.141143    0.035155    -16.193850    -1.751577    -9.841199    -21.023483    -4.187281    -0.881133    -87.133316    -3.345018    -4.052474    -27.262236    -4.546239    6.499052    -6.395558    18.823643    11.322237    38.587215    50.048538    10.326402    50.863262    13.776850    -11.565267    30.997999    37.293747    -23.275360    30.831831    -30.804962    42.420074    5.575490    0.266330    -13.436888    43.799030    0.000000    0.000000    0.000000    -30.489670    -12.708504    -17.933285    4.156694    33.061707    -6.605154    19.753569    -11.036646    7.161129    0.000000    0.000000    0.000000    
25.393967    145.933914    48.500938    4.728621    2.991882    -60.993546    -0.232506    -0.933447    -0.197166    0.925822    0.285388    -0.069285    20.448374    6.997000    20.410612    -16.128384    3.139018    17.706366    13.133635    0.039976    -16.195761    -1.751236    -9.843400    -21.026335    -4.239611    -0.757286    -87.030815    -3.231514    -3.996819    -27.334169    -4.555063    6.500225    -6.392588    18.810280    11.340653    38.592728    50.095013    10.364378    50.886166    13.752530    -11.580707    30.956219    37.285370    -23.259722    30.846468    -30.791502    42.419147    5.549373    0.260653    -13.448369    43.808567    0.000000    0.000000    0.000000    -30.495533    -12.710898    -17.918686    4.158678    33.053513    -6.590762    19.740650    -11.037616    7.161483    0.000000    0.000000    0.000000    
25.399775    145.937012    48.506580    4.731298    2.988222    -61.006710    -0.225073    -0.938306    -0.209306    0.920798    0.288657    -0.072915    20.428722    6.979854    20.400621    -16.113802    3.162107    17.699221    13.126330    0.038352    -16.195900    -1.770514    -9.825029    -21.050371    -4.191875    -0.830508    -87.191254    -3.286072    -4.028507    -27.125662    -4.575315    6.499266    -6.382104    18.799208    11.374535    38.603622    50.112072    10.393997    50.933563    13.729121    -11.601096    30.914684    37.277718    -23.252840    30.851564    -30.787224    42.413864    5.562301    0.272587    -13.446487    43.811749    0.000000    0.000000    0.000000    -30.501469    -12.715811    -17.913961    4.159509    33.045246    -6.595044    19.748243    -11.020881    7.172501    0.000000    0.000000    0.000000    
25.402046    145.943283    48.508457    4.725830    2.984557    -61.030441    -0.222440    -0.929505    -0.212254    0.922431    0.280416    -0.073835    20.431549    6.978291    20.398735    -16.123779    3.180935    17.698257    13.123876    0.052589    -16.195335    -1.785738    -9.844851    -21.069794    -4.208340    -0.778586    -87.228470    -3.246028    -4.007150    -27.043896    -4.590532    6.521012    -6.371590    18.788128    11.379601    38.625847    50.125149    10.435222    50.961681    13.676505    -11.603025    30.882818    37.280193    -23.228142    30.847740    -30.800283    42.397575    5.585894    0.276478    -13.438825    43.802792    0.000000    0.000000    0.000000    -30.495930    -12.718777    -17.889366    4.168983    33.028053    -6.590640    19.723993    -11.015094    7.144986    0.000000    0.000000    0.000000    
25.407690    145.950012    48.512058    4.722245    2.976072    -61.052197    -0.224399    -0.921368    -0.211811    0.928411    0.274043    -0.073668    20.417669    6.984994    20.391779    -16.121309    3.173814    17.692707    13.105154    0.063827    -16.203688    -1.783790    -9.844445    -21.084414    -4.215840    -0.744881    -87.261414    -3.207942    -3.994003    -26.969006    -4.602875    6.539217    -6.362666    18.767574    11.403737    38.641682    50.095013    10.461267    51.034924    13.657079    -11.606316    30.893841    37.270515    -23.204979    30.858412    -30.784563    42.388233    5.574355    0.250090    -13.454694    43.809902    0.000000    0.000000    0.000000    -30.493088    -12.723155    -17.867004    4.157356    33.014587    -6.589938    19.723444    -11.002546    7.152505    0.000000    0.000000    0.000000    
25.415928    145.955872    48.520027    4.728025    2.968690    -61.075703    -0.226747    -0.924251    -0.213625    0.931407    0.271314    -0.073935    20.425694    7.001610    20.386192    -16.157875    3.158071    17.683018    13.092567    0.084870    -16.203558    -1.790184    -9.854695    -21.101730    -4.215974    -0.721916    -87.318192    -3.180321    -3.984615    -26.873116    -4.617782    6.548371    -6.343603    18.763756    11.403366    38.646770    50.077534    10.495073    51.085514    13.659974    -11.592451    30.884174    37.258232    -23.192661    30.855446    -30.788248    42.379459    5.588670    0.252508    -13.461256    43.819038    0.000000    0.000000    0.000000    -30.503349    -12.734883    -17.844135    4.173439    33.003918    -6.590345    19.719692    -10.994887    7.129679    0.000000    0.000000    0.000000    
25.418848    145.962112    48.524708    4.720927    2.958988    -61.098309    -0.225229    -0.911101    -0.206608    0.926765    0.262683    -0.072366    20.426897    6.997291    20.384054    -16.160900    3.158501    17.679564    13.095937    0.094445    -16.222717    -1.800550    -9.814981    -21.105064    -4.188280    -0.744246    -87.375954    -3.158894    -3.992255    -26.784357    -4.622411    6.554839    -6.348077    18.771074    11.391742    38.667019    50.069019    10.528490    51.119953    13.650936    -11.578564    30.870777    37.251728    -23.170811    30.854252    -30.783171    42.380627    5.594615    0.258364    -13.444783    43.798801    0.000000    0.000000    0.000000    -30.499960    -12.732678    -17.847305    4.150810    32.987797    -6.557501    19.724356    -10.983213    7.129919    0.000000    0.000000    0.000000    
25.427032    145.966904    48.524250    4.728280    2.959608    -61.123745    -0.227611    -0.915875    -0.203173    0.931507    0.258041    -0.070270    20.421381    7.001308    20.382521    -16.164934    3.142549    17.676495    13.092002    0.098737    -16.230604    -1.802896    -9.832244    -21.115730    -4.213832    -0.682953    -87.450272    -3.105450    -3.976695    -26.671198    -4.632375    6.544806    -6.334945    18.782858    11.390059    38.668545    50.056999    10.547161    51.165722    13.663364    -11.575134    30.879663    37.253117    -23.164568    30.859690    -30.790379    42.370544    5.607554    0.254878    -13.448301    43.819176    0.000000    0.000000    0.000000    -30.496964    -12.750685    -17.835714    4.149693    32.974808    -6.561247    19.716404    -10.972548    7.131454    0.000000    0.000000    0.000000    
